<svg width="40" height="40" viewBox="0 0 40 40" fill="none" xmlns="http://www.w3.org/2000/svg">
<g clip-path="url(#clip0_9_190)">
<g clip-path="url(#clip1_9_190)">
<g clip-path="url(#clip2_9_190)">
<path d="M30 0.5H10C4.75329 0.5 0.5 4.75329 0.5 10V30C0.5 35.2467 4.75329 39.5 10 39.5H30C35.2467 39.5 39.5 35.2467 39.5 30V10C39.5 4.75329 35.2467 0.5 30 0.5Z" fill="url(#paint0_linear_9_190)" stroke="url(#paint1_linear_9_190)"/>
<mask id="mask0_9_190" style="mask-type:alpha" maskUnits="userSpaceOnUse" x="0" y="0" width="40" height="40">
<path d="M30 1H10C5.02944 1 1 5.02944 1 10V30C1 34.9706 5.02944 39 10 39H30C34.9706 39 39 34.9706 39 30V10C39 5.02944 34.9706 1 30 1Z" fill="url(#paint2_linear_9_190)" stroke="url(#paint3_linear_9_190)" stroke-width="2"/>
</mask>
<g mask="url(#mask0_9_190)">
<g filter="url(#filter0_f_9_190)">
<path d="M8 42C15.732 42 22 38.866 22 35C22 31.134 15.732 28 8 28C0.268013 28 -6 31.134 -6 35C-6 38.866 0.268013 42 8 42Z" fill="url(#paint4_linear_9_190)" fill-opacity="0.5"/>
</g>
</g>
<path d="M19.839 26.2C19.953 26.6249 19.9385 27.0741 19.7972 27.4907C19.6559 27.9073 19.3942 28.2727 19.0452 28.5406C18.6963 28.8084 18.2757 28.9668 17.8367 28.9956C17.3977 29.0245 16.96 28.9224 16.5791 28.7025C16.1981 28.4825 15.8909 28.1545 15.6963 27.76C15.5017 27.3654 15.4286 26.922 15.4861 26.4858C15.5435 26.0497 15.7291 25.6404 16.0192 25.3097C16.3093 24.979 16.691 24.7418 17.116 24.628C17.6855 24.4756 18.2923 24.5556 18.8029 24.8503C19.3135 25.1451 19.6862 25.6306 19.839 26.2ZM19.839 26.2L29.902 23.507M17.115 24.627L13.867 12.505C13.7891 12.2143 13.6476 11.9446 13.4526 11.7154C13.2576 11.4861 13.0141 11.3031 12.7396 11.1797C12.4652 11.0562 12.1667 10.9953 11.8658 11.0014C11.5649 11.0075 11.2692 11.0805 11 11.215M24.085 14.123L19.789 15.273C19.6479 15.3108 19.5155 15.3761 19.3996 15.4651C19.2837 15.5541 19.1865 15.665 19.1135 15.7916C19.0405 15.9182 18.9932 16.0579 18.9742 16.2028C18.9553 16.3477 18.965 16.4949 19.003 16.636L20.153 20.932C20.313 21.525 20.923 21.877 21.516 21.718L25.812 20.567C26.405 20.407 26.757 19.798 26.598 19.205L25.447 14.909C25.3706 14.6242 25.1842 14.3814 24.9288 14.234C24.6734 14.0866 24.3698 14.0467 24.085 14.123Z" stroke="white" stroke-width="2" stroke-linecap="round" stroke-linejoin="round"/>
</g>
</g>
</g>
<defs>
<filter id="filter0_f_9_190" x="-26" y="8" width="68" height="54" filterUnits="userSpaceOnUse" color-interpolation-filters="sRGB">
<feFlood flood-opacity="0" result="BackgroundImageFix"/>
<feBlend mode="normal" in="SourceGraphic" in2="BackgroundImageFix" result="shape"/>
<feGaussianBlur stdDeviation="10" result="effect1_foregroundBlur_9_190"/>
</filter>
<linearGradient id="paint0_linear_9_190" x1="20" y1="4.77601e-09" x2="20" y2="40" gradientUnits="userSpaceOnUse">
<stop stop-color="#303033"/>
<stop offset="1" stop-color="#161618"/>
</linearGradient>
<linearGradient id="paint1_linear_9_190" x1="20" y1="4.77601e-09" x2="20" y2="40" gradientUnits="userSpaceOnUse">
<stop stop-color="#232324"/>
<stop offset="1" stop-color="#333335"/>
</linearGradient>
<linearGradient id="paint2_linear_9_190" x1="20" y1="-2.74495e-08" x2="20" y2="40" gradientUnits="userSpaceOnUse">
<stop stop-color="#303033"/>
<stop offset="1" stop-color="#161618"/>
</linearGradient>
<linearGradient id="paint3_linear_9_190" x1="20" y1="-2.74495e-08" x2="20" y2="40" gradientUnits="userSpaceOnUse">
<stop stop-color="#232324"/>
<stop offset="1" stop-color="#333335"/>
</linearGradient>
<linearGradient id="paint4_linear_9_190" x1="15.467" y1="29.4" x2="6.88" y2="46.573" gradientUnits="userSpaceOnUse">
<stop stop-color="#ED25D9"/>
<stop offset="1" stop-color="white"/>
</linearGradient>
<clipPath id="clip0_9_190">
<rect width="40" height="40" fill="white"/>
</clipPath>
<clipPath id="clip1_9_190">
<rect width="40" height="40" fill="white"/>
</clipPath>
<clipPath id="clip2_9_190">
<rect width="40" height="40" fill="white"/>
</clipPath>
</defs>
</svg>
