<svg width="40" height="40" viewBox="0 0 40 40" fill="none" xmlns="http://www.w3.org/2000/svg">
<g clip-path="url(#clip0_9_176)">
<g clip-path="url(#clip1_9_176)">
<g clip-path="url(#clip2_9_176)">
<path d="M30 0.5H10C4.75329 0.5 0.5 4.75329 0.5 10V30C0.5 35.2467 4.75329 39.5 10 39.5H30C35.2467 39.5 39.5 35.2467 39.5 30V10C39.5 4.75329 35.2467 0.5 30 0.5Z" fill="url(#paint0_linear_9_176)" stroke="url(#paint1_linear_9_176)"/>
<mask id="mask0_9_176" style="mask-type:alpha" maskUnits="userSpaceOnUse" x="0" y="0" width="40" height="40">
<path d="M30 1H10C5.02944 1 1 5.02944 1 10V30C1 34.9706 5.02944 39 10 39H30C34.9706 39 39 34.9706 39 30V10C39 5.02944 34.9706 1 30 1Z" fill="url(#paint2_linear_9_176)" stroke="url(#paint3_linear_9_176)" stroke-width="2"/>
</mask>
<g mask="url(#mask0_9_176)">
<g filter="url(#filter0_f_9_176)">
<path d="M8 42C15.732 42 22 38.866 22 35C22 31.134 15.732 28 8 28C0.268013 28 -6 31.134 -6 35C-6 38.866 0.268013 42 8 42Z" fill="url(#paint4_linear_9_176)" fill-opacity="0.5"/>
</g>
</g>
<path d="M12.071 24.179C11.626 23.734 11.375 23.13 11.375 22.5V17.499C11.3758 16.8694 11.6263 16.2659 12.0716 15.8209C12.5168 15.3758 13.1204 15.1255 13.75 15.125H26.251C26.8806 15.1258 27.4841 15.3763 27.9291 15.8216C28.3742 16.2668 28.6245 16.8704 28.625 17.5V22.5C28.6242 23.1296 28.3737 23.7341 27.9284 24.1791C27.4832 24.6242 26.8796 24.8745 26.25 24.875H13.749C13.1196 24.8743 12.5161 24.624 12.071 24.179ZM12.071 24.179L12.425 23.825M11.895 15.645C12.3871 15.1529 13.0541 14.8761 13.75 14.875H26.25C26.946 14.8761 27.6133 15.1531 28.1053 15.6454C28.5974 16.1376 28.8742 16.805 28.875 17.501V22.499C28.8742 23.1952 28.5973 23.8627 28.105 24.355C27.6127 24.8473 26.9452 25.1242 26.249 25.125H13.751C13.055 25.1242 12.3876 24.8474 11.8954 24.3553C11.4031 23.8633 11.1261 23.196 11.125 22.5V17.5C11.125 16.804 11.403 16.137 11.895 15.645ZM15.625 19.875H16.875C16.9082 19.875 16.9399 19.8882 16.9634 19.9116C16.9868 19.9351 17 19.9668 17 20C17 20.0332 16.9868 20.0649 16.9634 20.0884C16.9399 20.1118 16.9082 20.125 16.875 20.125H15.625C15.5918 20.125 15.5601 20.1118 15.5366 20.0884C15.5132 20.0649 15.5 20.0332 15.5 20C15.5 19.9668 15.5132 19.9351 15.5366 19.9116C15.5601 19.8882 15.5918 19.875 15.625 19.875ZM19.375 19.875H20.625C20.6582 19.875 20.6899 19.8882 20.7134 19.9116C20.7368 19.9351 20.75 19.9668 20.75 20C20.75 20.0332 20.7368 20.0649 20.7134 20.0884C20.6899 20.1118 20.6582 20.125 20.625 20.125H19.375C19.3418 20.125 19.3101 20.1118 19.2866 20.0884C19.2632 20.0649 19.25 20.0332 19.25 20C19.25 19.9668 19.2632 19.9351 19.2866 19.9116C19.3101 19.8882 19.3418 19.875 19.375 19.875ZM23.125 19.875H24.375C24.4082 19.875 24.4399 19.8882 24.4634 19.9116C24.4868 19.9351 24.5 19.9668 24.5 20C24.5 20.0332 24.4868 20.0649 24.4634 20.0884C24.4399 20.1118 24.4082 20.125 24.375 20.125H23.125C23.0918 20.125 23.0601 20.1118 23.0366 20.0884C23.0132 20.0649 23 20.0332 23 20C23 19.9668 23.0132 19.9351 23.0366 19.9116C23.0601 19.8882 23.0918 19.875 23.125 19.875Z" stroke="white"/>
<path d="M26.25 14.375H13.75C12.9215 14.3761 12.1273 14.7056 11.5415 15.2915C10.9556 15.8773 10.6261 16.6715 10.625 17.5V22.5C10.6261 23.3285 10.9556 24.1227 11.5415 24.7085C12.1273 25.2944 12.9215 25.6239 13.75 25.625H26.25C27.0785 25.6239 27.8727 25.2944 28.4585 24.7085C29.0444 24.1227 29.3739 23.3285 29.375 22.5V17.5C29.3739 16.6715 29.0444 15.8773 28.4585 15.2915C27.8727 14.7056 27.0785 14.3761 26.25 14.375ZM28.125 22.5C28.1245 22.9971 27.9268 23.4737 27.5752 23.8252C27.2237 24.1768 26.7471 24.3745 26.25 24.375H13.75C13.2529 24.3745 12.7763 24.1768 12.4248 23.8252C12.0732 23.4737 11.8755 22.9971 11.875 22.5V17.5C11.8755 17.0029 12.0732 16.5263 12.4248 16.1748C12.7763 15.8232 13.2529 15.6255 13.75 15.625H26.25C26.7471 15.6255 27.2237 15.8232 27.5752 16.1748C27.9268 16.5263 28.1245 17.0029 28.125 17.5V22.5Z" stroke="white"/>
</g>
</g>
</g>
<defs>
<filter id="filter0_f_9_176" x="-26" y="8" width="68" height="54" filterUnits="userSpaceOnUse" color-interpolation-filters="sRGB">
<feFlood flood-opacity="0" result="BackgroundImageFix"/>
<feBlend mode="normal" in="SourceGraphic" in2="BackgroundImageFix" result="shape"/>
<feGaussianBlur stdDeviation="10" result="effect1_foregroundBlur_9_176"/>
</filter>
<linearGradient id="paint0_linear_9_176" x1="20" y1="4.77601e-09" x2="20" y2="40" gradientUnits="userSpaceOnUse">
<stop stop-color="#303033"/>
<stop offset="1" stop-color="#161618"/>
</linearGradient>
<linearGradient id="paint1_linear_9_176" x1="20" y1="4.77601e-09" x2="20" y2="40" gradientUnits="userSpaceOnUse">
<stop stop-color="#232324"/>
<stop offset="1" stop-color="#333335"/>
</linearGradient>
<linearGradient id="paint2_linear_9_176" x1="20" y1="-2.74495e-08" x2="20" y2="40" gradientUnits="userSpaceOnUse">
<stop stop-color="#303033"/>
<stop offset="1" stop-color="#161618"/>
</linearGradient>
<linearGradient id="paint3_linear_9_176" x1="20" y1="-2.74495e-08" x2="20" y2="40" gradientUnits="userSpaceOnUse">
<stop stop-color="#232324"/>
<stop offset="1" stop-color="#333335"/>
</linearGradient>
<linearGradient id="paint4_linear_9_176" x1="15.467" y1="29.4" x2="6.88" y2="46.573" gradientUnits="userSpaceOnUse">
<stop stop-color="#62CFF4"/>
<stop offset="1" stop-color="white"/>
</linearGradient>
<clipPath id="clip0_9_176">
<rect width="40" height="40" fill="white"/>
</clipPath>
<clipPath id="clip1_9_176">
<rect width="40" height="40" fill="white"/>
</clipPath>
<clipPath id="clip2_9_176">
<rect width="40" height="40" fill="white"/>
</clipPath>
</defs>
</svg>
