<svg width="40" height="40" viewBox="0 0 40 40" fill="none" xmlns="http://www.w3.org/2000/svg">
<g clip-path="url(#clip0_9_257)">
<g clip-path="url(#clip1_9_257)">
<g clip-path="url(#clip2_9_257)">
<path d="M30 0.5H10C4.75329 0.5 0.5 4.75329 0.5 10V30C0.5 35.2467 4.75329 39.5 10 39.5H30C35.2467 39.5 39.5 35.2467 39.5 30V10C39.5 4.75329 35.2467 0.5 30 0.5Z" fill="url(#paint0_linear_9_257)" stroke="url(#paint1_linear_9_257)"/>
<mask id="mask0_9_257" style="mask-type:alpha" maskUnits="userSpaceOnUse" x="0" y="0" width="40" height="40">
<path d="M30 1H10C5.02944 1 1 5.02944 1 10V30C1 34.9706 5.02944 39 10 39H30C34.9706 39 39 34.9706 39 30V10C39 5.02944 34.9706 1 30 1Z" fill="url(#paint2_linear_9_257)" stroke="url(#paint3_linear_9_257)" stroke-width="2"/>
</mask>
<g mask="url(#mask0_9_257)">
<g filter="url(#filter0_f_9_257)">
<path d="M8 42C15.732 42 22 38.866 22 35C22 31.134 15.732 28 8 28C0.268013 28 -6 31.134 -6 35C-6 38.866 0.268013 42 8 42Z" fill="url(#paint4_linear_9_257)" fill-opacity="0.5"/>
</g>
</g>
<path d="M17.778 13.333V12.223C17.7779 11.6337 18.0119 11.0685 18.4285 10.6517C18.8451 10.2349 19.4102 10.0006 19.9995 10.0005C20.5888 10.0004 21.154 10.2343 21.5708 10.6509C21.9876 11.0676 22.2219 11.6327 22.222 12.222V13.333M22.222 27.223H26.037C27.807 27.223 28.759 25.143 27.602 23.803L26.811 22.886C26.3265 22.3251 25.9614 21.6714 25.7379 20.9648C25.5144 20.2582 25.4372 19.5134 25.511 18.776C25.5867 18.0175 25.5027 17.2515 25.2643 16.5275C25.0258 15.8034 24.6383 15.1374 24.1267 14.5723C23.6151 14.0072 22.9908 13.5555 22.294 13.2465C21.5971 12.9374 20.8433 12.7779 20.081 12.778H19.918C19.1556 12.778 18.4016 12.9377 17.7047 13.2469C17.0078 13.5562 16.3834 14.008 15.8718 14.5733C15.3603 15.1386 14.9728 15.8048 14.7344 16.529C14.4961 17.2532 14.4121 18.0193 14.488 18.778C14.5616 19.5151 14.4842 20.2595 14.2607 20.9658C14.0372 21.672 13.6722 22.3254 13.188 22.886L12.398 23.802C11.24 25.142 12.192 27.222 13.963 27.222H17.777M17.777 27.222V27.778C17.777 28.3673 18.0111 28.9325 18.4278 29.3492C18.8445 29.7659 19.4097 30 19.999 30C20.5883 30 21.1535 29.7659 21.5702 29.3492C21.9869 28.9325 22.221 28.3673 22.221 27.778V27.222H17.777Z" stroke="white" stroke-width="2" stroke-linejoin="round"/>
</g>
</g>
</g>
<defs>
<filter id="filter0_f_9_257" x="-26" y="8" width="68" height="54" filterUnits="userSpaceOnUse" color-interpolation-filters="sRGB">
<feFlood flood-opacity="0" result="BackgroundImageFix"/>
<feBlend mode="normal" in="SourceGraphic" in2="BackgroundImageFix" result="shape"/>
<feGaussianBlur stdDeviation="10" result="effect1_foregroundBlur_9_257"/>
</filter>
<linearGradient id="paint0_linear_9_257" x1="20" y1="4.77601e-09" x2="20" y2="40" gradientUnits="userSpaceOnUse">
<stop stop-color="#303033"/>
<stop offset="1" stop-color="#161618"/>
</linearGradient>
<linearGradient id="paint1_linear_9_257" x1="20" y1="4.77601e-09" x2="20" y2="40" gradientUnits="userSpaceOnUse">
<stop stop-color="#232324"/>
<stop offset="1" stop-color="#333335"/>
</linearGradient>
<linearGradient id="paint2_linear_9_257" x1="20" y1="-2.74495e-08" x2="20" y2="40" gradientUnits="userSpaceOnUse">
<stop stop-color="#303033"/>
<stop offset="1" stop-color="#161618"/>
</linearGradient>
<linearGradient id="paint3_linear_9_257" x1="20" y1="-2.74495e-08" x2="20" y2="40" gradientUnits="userSpaceOnUse">
<stop stop-color="#232324"/>
<stop offset="1" stop-color="#333335"/>
</linearGradient>
<linearGradient id="paint4_linear_9_257" x1="15.467" y1="29.4" x2="6.88" y2="46.573" gradientUnits="userSpaceOnUse">
<stop stop-color="#3A30C8"/>
<stop offset="1" stop-color="white"/>
</linearGradient>
<clipPath id="clip0_9_257">
<rect width="40" height="40" fill="white"/>
</clipPath>
<clipPath id="clip1_9_257">
<rect width="40" height="40" fill="white"/>
</clipPath>
<clipPath id="clip2_9_257">
<rect width="40" height="40" fill="white"/>
</clipPath>
</defs>
</svg>
