<svg width="40" height="40" viewBox="0 0 40 40" fill="none" xmlns="http://www.w3.org/2000/svg">
<g clip-path="url(#clip0_9_203)">
<g clip-path="url(#clip1_9_203)">
<g clip-path="url(#clip2_9_203)">
<path d="M30 0.5H10C4.75329 0.5 0.5 4.75329 0.5 10V30C0.5 35.2467 4.75329 39.5 10 39.5H30C35.2467 39.5 39.5 35.2467 39.5 30V10C39.5 4.75329 35.2467 0.5 30 0.5Z" fill="url(#paint0_linear_9_203)" stroke="url(#paint1_linear_9_203)"/>
<mask id="mask0_9_203" style="mask-type:alpha" maskUnits="userSpaceOnUse" x="0" y="0" width="40" height="40">
<path d="M30 0.5H10C4.75329 0.5 0.5 4.75329 0.5 10V30C0.5 35.2467 4.75329 39.5 10 39.5H30C35.2467 39.5 39.5 35.2467 39.5 30V10C39.5 4.75329 35.2467 0.5 30 0.5Z" fill="url(#paint2_linear_9_203)" stroke="url(#paint3_linear_9_203)"/>
</mask>
<g mask="url(#mask0_9_203)">
<g filter="url(#filter0_f_9_203)">
<path d="M8 42C15.732 42 22 38.866 22 35C22 31.134 15.732 28 8 28C0.268013 28 -6 31.134 -6 35C-6 38.866 0.268013 42 8 42Z" fill="url(#paint4_linear_9_203)" fill-opacity="0.5"/>
</g>
</g>
<path d="M29 19.889V20.6C29 23.266 29 24.6 28.321 25.534C28.1015 25.836 27.836 26.1015 27.534 26.321C26.6 27 25.267 27 22.6 27H19.4C16.734 27 15.4 27 14.466 26.321C14.164 26.1016 13.8984 25.836 13.679 25.534C13 24.6 13 23.267 13 20.6V19.889M21 11V21.667M21 21.667L23.667 19M21 21.667L18.333 19" stroke="white" stroke-width="2" stroke-linecap="round" stroke-linejoin="round"/>
</g>
</g>
</g>
<defs>
<filter id="filter0_f_9_203" x="-26" y="8" width="68" height="54" filterUnits="userSpaceOnUse" color-interpolation-filters="sRGB">
<feFlood flood-opacity="0" result="BackgroundImageFix"/>
<feBlend mode="normal" in="SourceGraphic" in2="BackgroundImageFix" result="shape"/>
<feGaussianBlur stdDeviation="10" result="effect1_foregroundBlur_9_203"/>
</filter>
<linearGradient id="paint0_linear_9_203" x1="20" y1="4.77601e-09" x2="20" y2="40" gradientUnits="userSpaceOnUse">
<stop stop-color="#303033"/>
<stop offset="1" stop-color="#161618"/>
</linearGradient>
<linearGradient id="paint1_linear_9_203" x1="20" y1="4.77601e-09" x2="20" y2="40" gradientUnits="userSpaceOnUse">
<stop stop-color="#232324"/>
<stop offset="1" stop-color="#333335"/>
</linearGradient>
<linearGradient id="paint2_linear_9_203" x1="20" y1="4.77601e-09" x2="20" y2="40" gradientUnits="userSpaceOnUse">
<stop stop-color="#303033"/>
<stop offset="1" stop-color="#161618"/>
</linearGradient>
<linearGradient id="paint3_linear_9_203" x1="20" y1="4.77601e-09" x2="20" y2="40" gradientUnits="userSpaceOnUse">
<stop stop-color="#232324"/>
<stop offset="1" stop-color="#333335"/>
</linearGradient>
<linearGradient id="paint4_linear_9_203" x1="15.467" y1="29.4" x2="6.88" y2="46.573" gradientUnits="userSpaceOnUse">
<stop stop-color="#DE3636"/>
<stop offset="1" stop-color="white"/>
</linearGradient>
<clipPath id="clip0_9_203">
<rect width="40" height="40" fill="white"/>
</clipPath>
<clipPath id="clip1_9_203">
<rect width="40" height="40" fill="white"/>
</clipPath>
<clipPath id="clip2_9_203">
<rect width="40" height="40" fill="white"/>
</clipPath>
</defs>
</svg>
