<svg width="40" height="40" viewBox="0 0 40 40" fill="none" xmlns="http://www.w3.org/2000/svg">
<g clip-path="url(#clip0_9_163)">
<g clip-path="url(#clip1_9_163)">
<g clip-path="url(#clip2_9_163)">
<path d="M30 0.5H10C4.75329 0.5 0.5 4.75329 0.5 10V30C0.5 35.2467 4.75329 39.5 10 39.5H30C35.2467 39.5 39.5 35.2467 39.5 30V10C39.5 4.75329 35.2467 0.5 30 0.5Z" fill="url(#paint0_linear_9_163)" stroke="url(#paint1_linear_9_163)"/>
<mask id="mask0_9_163" style="mask-type:alpha" maskUnits="userSpaceOnUse" x="0" y="0" width="40" height="40">
<path d="M30 1H10C5.02944 1 1 5.02944 1 10V30C1 34.9706 5.02944 39 10 39H30C34.9706 39 39 34.9706 39 30V10C39 5.02944 34.9706 1 30 1Z" fill="url(#paint2_linear_9_163)" stroke="url(#paint3_linear_9_163)" stroke-width="2"/>
</mask>
<g mask="url(#mask0_9_163)">
<g filter="url(#filter0_f_9_163)">
<path d="M8 42C15.732 42 22 38.866 22 35C22 31.134 15.732 28 8 28C0.268013 28 -6 31.134 -6 35C-6 38.866 0.268013 42 8 42Z" fill="url(#paint4_linear_9_163)" fill-opacity="0.5"/>
</g>
</g>
<path d="M18.333 25.25C18.333 26.187 18.333 26.656 18.095 26.985C18.017 27.091 17.925 27.185 17.818 27.261C17.489 27.5 17.021 27.5 16.083 27.5H14.75C13.813 27.5 13.344 27.5 13.015 27.261C12.909 27.184 12.815 27.091 12.739 26.985C12.5 26.656 12.5 26.187 12.5 25.25V14.75C12.5 13.813 12.5 13.344 12.739 13.015C12.816 12.909 12.909 12.815 13.015 12.739C13.344 12.5 13.813 12.5 14.75 12.5H16.083C17.021 12.5 17.49 12.5 17.818 12.739C17.924 12.816 18.018 12.909 18.095 13.015C18.333 13.344 18.333 13.813 18.333 14.75V25.25ZM27.5 16.083C27.5 17.021 27.5 17.49 27.262 17.818C27.184 17.924 27.092 18.018 26.985 18.095C26.657 18.333 26.188 18.333 25.25 18.333H23.917C22.98 18.333 22.511 18.333 22.182 18.095C22.0758 18.018 21.9826 17.9245 21.906 17.818C21.667 17.489 21.667 17.021 21.667 16.083V14.75C21.667 13.813 21.667 13.344 21.906 13.015C21.983 12.909 22.076 12.815 22.182 12.739C22.511 12.5 22.98 12.5 23.917 12.5H25.25C26.188 12.5 26.657 12.5 26.985 12.739C27.091 12.816 27.185 12.909 27.262 13.015C27.5 13.344 27.5 13.813 27.5 14.75V16.083ZM27.5 25.25C27.5 26.187 27.5 26.656 27.262 26.985C27.1847 27.091 27.0912 27.1841 26.985 27.261C26.657 27.5 26.188 27.5 25.25 27.5H23.917C22.98 27.5 22.511 27.5 22.182 27.261C22.076 27.184 21.982 27.091 21.906 26.985C21.667 26.656 21.667 26.187 21.667 25.25V23.916C21.667 22.979 21.667 22.51 21.906 22.182C21.983 22.076 22.076 21.982 22.182 21.905C22.511 21.666 22.98 21.666 23.917 21.666H25.25C26.188 21.666 26.657 21.666 26.985 21.906C27.091 21.982 27.185 22.076 27.262 22.182C27.5 22.51 27.5 22.979 27.5 23.917V25.25Z" stroke="white" stroke-width="2" stroke-linecap="round" stroke-linejoin="round"/>
</g>
</g>
</g>
<defs>
<filter id="filter0_f_9_163" x="-26" y="8" width="68" height="54" filterUnits="userSpaceOnUse" color-interpolation-filters="sRGB">
<feFlood flood-opacity="0" result="BackgroundImageFix"/>
<feBlend mode="normal" in="SourceGraphic" in2="BackgroundImageFix" result="shape"/>
<feGaussianBlur stdDeviation="10" result="effect1_foregroundBlur_9_163"/>
</filter>
<linearGradient id="paint0_linear_9_163" x1="20" y1="4.77601e-09" x2="20" y2="40" gradientUnits="userSpaceOnUse">
<stop stop-color="#303033"/>
<stop offset="1" stop-color="#161618"/>
</linearGradient>
<linearGradient id="paint1_linear_9_163" x1="20" y1="4.77601e-09" x2="20" y2="40" gradientUnits="userSpaceOnUse">
<stop stop-color="#232324"/>
<stop offset="1" stop-color="#333335"/>
</linearGradient>
<linearGradient id="paint2_linear_9_163" x1="20" y1="-2.74495e-08" x2="20" y2="40" gradientUnits="userSpaceOnUse">
<stop stop-color="#303033"/>
<stop offset="1" stop-color="#161618"/>
</linearGradient>
<linearGradient id="paint3_linear_9_163" x1="20" y1="-2.74495e-08" x2="20" y2="40" gradientUnits="userSpaceOnUse">
<stop stop-color="#232324"/>
<stop offset="1" stop-color="#333335"/>
</linearGradient>
<linearGradient id="paint4_linear_9_163" x1="15.467" y1="29.4" x2="6.88" y2="46.573" gradientUnits="userSpaceOnUse">
<stop stop-color="#3EC84E"/>
<stop offset="1" stop-color="white"/>
</linearGradient>
<clipPath id="clip0_9_163">
<rect width="40" height="40" fill="white"/>
</clipPath>
<clipPath id="clip1_9_163">
<rect width="40" height="40" fill="white"/>
</clipPath>
<clipPath id="clip2_9_163">
<rect width="40" height="40" fill="white"/>
</clipPath>
</defs>
</svg>
