<svg width="156" height="36" viewBox="0 0 156 36" fill="none" xmlns="http://www.w3.org/2000/svg">
<g clip-path="url(#clip0_9_148)">
<g clip-path="url(#clip1_9_148)">
<path d="M29.6571 0H8.05712C4.08067 0 0.857117 3.22355 0.857117 7.2V28.8C0.857117 32.7765 4.08067 36 8.05712 36H29.6571C33.6336 36 36.8571 32.7765 36.8571 28.8V7.2C36.8571 3.22355 33.6336 0 29.6571 0Z" fill="white"/>
<path d="M20.9482 23.3044V29.3081C20.9482 29.7191 20.785 30.1132 20.4944 30.4038C20.2038 30.6944 19.8096 30.8577 19.3987 30.8577C18.9877 30.8577 18.5936 30.6944 18.303 30.4038C18.0124 30.1132 17.8491 29.7191 17.8491 29.3081V23.3044C18.0929 18.9237 21.7021 17.6266 23.4764 17.5248H29.6067C30.0109 17.5248 30.3985 17.6854 30.6842 17.9711C30.97 18.2569 31.1306 18.6445 31.1306 19.0486C31.1306 19.4528 30.97 19.8404 30.6842 20.1261C30.3985 20.4119 30.0109 20.5725 29.6067 20.5725H23.4764C21.2866 20.8965 21.0151 22.391 20.9482 23.3044Z" fill="#0E0F11"/>
<path d="M25.5216 22.9464C24.8905 22.3638 23.9066 22.4029 23.3239 23.034C22.7412 23.665 22.7804 24.6489 23.4115 25.2316L26.4788 28.0639C27.1098 28.6466 28.0937 28.6074 28.6764 27.9764C29.2591 27.3454 29.2199 26.3615 28.5889 25.7788L25.5216 22.9464Z" fill="#0E0F11"/>
<path d="M12.2128 10.0593C11.5856 9.50196 10.6254 9.55862 10.0681 10.1858C9.51075 10.813 9.56741 11.7733 10.1946 12.3306L13.3694 15.1515C13.9966 15.7088 14.9568 15.6522 15.5141 15.025C16.0714 14.3978 16.0147 13.4375 15.3875 12.8802L12.2128 10.0593Z" fill="#0E0F11"/>
<path d="M12.7928 20.5823C13.6364 20.5808 14.319 19.8958 14.3176 19.0522C14.3161 18.2087 13.6311 17.526 12.7875 17.5274L8.55701 17.5348C7.71343 17.5362 7.03076 18.2213 7.03222 19.0648C7.03368 19.9084 7.71871 20.5911 8.56229 20.5896L12.7928 20.5823Z" fill="#0E0F11"/>
<path d="M28.0858 9.74909L28.0851 9.74836C27.4877 9.14873 26.5173 9.1469 25.9177 9.74428L22.9279 12.7228C22.3283 13.3202 22.3265 14.2905 22.9238 14.8902L22.9246 14.8909C23.5219 15.4905 24.4923 15.4924 25.0919 14.895L28.0817 11.9165C28.6813 11.3191 28.6832 10.3487 28.0858 9.74909Z" fill="#0E0F11"/>
<path d="M21.0036 7.77278C21.0121 6.90539 20.3159 6.19533 19.4485 6.18682C18.5811 6.17831 17.871 6.87458 17.8625 7.74197L17.8219 11.8859C17.8134 12.7533 18.5096 13.4633 19.377 13.4718C20.2444 13.4804 20.9545 12.7841 20.963 11.9167L21.0036 7.77278Z" fill="#0E0F11"/>
<path d="M15.2561 24.7217C15.8542 24.1227 15.8534 23.1523 15.2544 22.5543C14.6555 21.9562 13.6851 21.957 13.0871 22.556L10.1052 25.5424C9.50716 26.1414 9.5079 27.1117 10.1069 27.7098C10.7058 28.3078 11.6762 28.3071 12.2742 27.7081L15.2561 24.7217Z" fill="#0E0F11"/>
<path d="M51.8331 24.9326C50.8868 24.9326 50.03 24.7814 49.2617 24.48C48.5125 24.1682 47.8441 23.6898 47.3074 23.0811C46.7725 22.464 46.3611 21.7029 46.0731 20.7977C45.7851 19.8792 45.6411 18.8157 45.6411 17.6091C45.6411 16.4026 45.7851 15.3329 46.0731 14.4C46.3611 13.4537 46.7725 12.6648 47.3074 12.0343C47.8376 11.4034 48.5064 10.9035 49.2617 10.5737C50.03 10.2446 50.8868 10.08 51.8331 10.08C53.1219 10.08 54.1916 10.3546 55.0423 10.9029C55.8929 11.4511 56.5717 12.2811 57.0788 13.392L54.7543 14.6263C54.5485 13.9814 54.2122 13.4671 53.7463 13.0834C53.2803 12.6854 52.6426 12.4869 51.8331 12.4869C50.8179 12.4869 50.0095 12.8294 49.4057 13.5154C48.8163 14.2015 48.5211 15.1611 48.5211 16.3954V18.6583C48.5211 19.9059 48.8163 20.8666 49.4057 21.5383C50.0095 22.1966 50.8179 22.5257 51.8331 22.5257C52.6426 22.5257 53.3009 22.3066 53.808 21.8674C54.3236 21.4366 54.7143 20.8754 54.9394 20.2423L57.1405 21.5383C56.6191 22.608 55.9268 23.4442 55.0628 24.048C54.1988 24.6374 53.1219 24.9326 51.8331 24.9326ZM65.0935 12.7337V24.6857H62.378V12.7337H58.3049V10.3269H69.1666V12.7337H65.0935ZM78.9308 24.6857L77.7788 21.024H72.6771L71.5457 24.6857H68.7891L73.6028 10.3269H76.9765L81.7491 24.6857H78.9308ZM75.2691 12.7954H75.1663L73.3354 18.6994H77.1205L75.2691 12.7954ZM85.6258 24.912C85.0632 24.912 84.6445 24.7752 84.3709 24.5006C84.1097 24.2126 83.9801 23.8495 83.9801 23.4103V23.04C83.9801 22.6008 84.1097 22.2377 84.3709 21.9497C84.6445 21.6617 85.0632 21.5177 85.6258 21.5177C86.2018 21.5177 86.6194 21.6617 86.8807 21.9497C87.1409 22.2377 87.2715 22.6008 87.2715 23.04V23.4103C87.2715 23.8495 87.1409 24.2126 86.8807 24.5006C86.6194 24.7752 86.2018 24.912 85.6258 24.912ZM99.8787 25.5909C99.8787 26.1535 99.7759 26.6472 99.5701 27.072C99.3778 27.5112 99.0559 27.8743 98.6033 28.1623C98.1507 28.4503 97.5675 28.6694 96.8547 28.8206C96.1419 28.9718 95.2707 29.0469 94.2421 29.0469C93.337 29.0469 92.5697 28.9851 91.9381 28.8617C91.3076 28.7517 90.7861 28.5871 90.3747 28.368C89.9767 28.1623 89.6897 27.9021 89.5107 27.5863C89.3295 27.2593 89.2373 26.8904 89.2433 26.5166C89.2433 25.9128 89.4079 25.4397 89.737 25.0971C90.0805 24.768 90.5527 24.5551 91.1564 24.4594V24.2331C90.7183 24.1231 90.3747 23.9112 90.1279 23.5954C89.8922 23.2582 89.7697 22.8548 89.7781 22.4434C89.7781 22.1688 89.8327 21.9291 89.9427 21.7234C90.0528 21.5043 90.1968 21.3192 90.3747 21.168C90.5692 21.0157 90.7838 20.8911 91.0124 20.7977C91.2488 20.6867 91.4973 20.6038 91.753 20.5509V20.4686C91.0947 20.1672 90.601 19.7486 90.2719 19.2137C89.9571 18.6789 89.7987 18.0545 89.7987 17.3417C89.7987 16.2442 90.1762 15.3669 90.9301 14.7086C91.6851 14.0369 92.7888 13.7006 94.2421 13.7006C94.5713 13.7006 94.8932 13.7211 95.209 13.7623C95.5381 13.8034 95.8405 13.8723 96.1141 13.968V13.6183C96.1141 12.5763 96.6212 12.0549 97.6364 12.0549H99.3027V14.0709H97.0193V14.3589C97.5819 14.6746 98.0005 15.0861 98.2741 15.5931C98.5488 16.1002 98.6856 16.6834 98.6856 17.3417C98.6856 18.4248 98.3081 19.296 97.5541 19.9543C96.8136 20.6126 95.7099 20.9417 94.2421 20.9417C93.6116 20.9417 93.0624 20.88 92.5964 20.7566C92.3907 20.8522 92.2128 20.9829 92.0616 21.1474C91.9866 21.2229 91.9278 21.313 91.8889 21.4121C91.85 21.5111 91.8317 21.6171 91.8353 21.7234C91.8353 22.2583 92.3022 22.5257 93.2341 22.5257H96.1141C97.4307 22.5257 98.3842 22.8003 98.9736 23.3486C99.5773 23.8834 99.8787 24.6312 99.8787 25.5909ZM97.4101 25.8994C97.4157 25.7417 97.3808 25.5852 97.3088 25.4447C97.2368 25.3043 97.1301 25.1846 96.9987 25.0971C96.7241 24.9048 96.2509 24.8091 95.5793 24.8091H91.9176C91.5473 25.0838 91.3621 25.4541 91.3621 25.92C91.3621 26.3314 91.5339 26.6534 91.8764 26.8869C92.22 27.1203 92.8021 27.2366 93.625 27.2366H94.9416C95.8056 27.2366 96.4299 27.1265 96.8136 26.9074C97.2116 26.6883 97.4101 26.352 97.4101 25.8994ZM94.2421 19.152C95.532 19.152 96.1758 18.6038 96.1758 17.5063V17.1566C96.1758 16.0591 95.5309 15.5109 94.2421 15.5109C92.9533 15.5109 92.3084 16.0591 92.3084 17.1566V17.5063C92.3084 18.6038 92.9533 19.152 94.2421 19.152ZM109.259 24.6857C108.683 24.6857 108.224 24.5211 107.881 24.192C107.552 23.8495 107.346 23.3969 107.264 22.8343H107.14C106.961 23.5337 106.598 24.0614 106.05 24.4183C105.501 24.7608 104.822 24.9326 104.014 24.9326C102.916 24.9326 102.073 24.6446 101.483 24.0686C100.893 23.4926 100.599 22.7242 100.599 21.7646C100.599 20.6537 100.996 19.8309 101.792 19.296C102.587 18.7478 103.718 18.4731 105.186 18.4731H107.017V17.6914C107.017 17.0877 106.859 16.6217 106.544 16.2926C106.228 15.9634 105.721 15.7989 105.022 15.7989C104.404 15.7989 103.904 15.9357 103.52 16.2103C103.15 16.4705 102.834 16.7863 102.574 17.1566L101.01 15.7577C101.407 15.1406 101.936 14.6469 102.594 14.2766C103.252 13.8929 104.123 13.7006 105.207 13.7006C106.66 13.7006 107.764 14.0297 108.519 14.688C109.273 15.3463 109.65 16.2926 109.65 17.5269V22.5874H110.72V24.6857H109.259ZM104.898 23.0194C105.488 23.0194 105.988 22.8888 106.4 22.6286C106.811 22.3683 107.017 21.9837 107.017 21.4766V20.0571H105.33C103.958 20.0571 103.273 20.4963 103.273 21.3737V21.7234C103.273 22.1626 103.41 22.4918 103.684 22.7109C103.972 22.9166 104.377 23.0194 104.898 23.0194ZM115.483 24.6857C114.578 24.6857 113.914 24.4594 113.488 24.0069C113.063 23.5543 112.85 22.9166 112.85 22.0937V9.46286H115.483V22.5874H116.903V24.6857H115.483ZM121.39 24.6857C120.485 24.6857 119.82 24.4594 119.395 24.0069C118.969 23.5543 118.757 22.9166 118.757 22.0937V9.46286H121.39V22.5874H122.81V24.6857H121.39ZM129.144 24.9326C128.349 24.9326 127.636 24.8019 127.004 24.5417C126.403 24.2789 125.864 23.8935 125.42 23.4103C124.98 22.8896 124.645 22.2889 124.433 21.6411C124.2 20.9417 124.083 20.16 124.083 19.296C124.083 18.4454 124.193 17.6781 124.412 16.992C124.621 16.3491 124.957 15.7546 125.4 15.2434C125.825 14.7494 126.361 14.3619 126.963 14.112C127.58 13.8374 128.28 13.7006 129.061 13.7006C129.899 13.7006 130.625 13.8446 131.242 14.1326C131.859 14.4206 132.367 14.8114 132.764 15.3051C133.162 15.7989 133.457 16.3749 133.649 17.0331C133.854 17.6781 133.957 18.3703 133.957 19.1109V19.9749H126.819V20.2423C126.819 21.024 127.039 21.6545 127.477 22.1349C127.917 22.6008 128.568 22.8343 129.432 22.8343C130.09 22.8343 130.625 22.6975 131.036 22.4229C131.462 22.1482 131.838 21.7985 132.168 21.3737L133.587 22.9577C133.149 23.5749 132.545 24.0614 131.777 24.4183C131.023 24.7608 130.145 24.9326 129.144 24.9326ZM129.102 15.6754C128.403 15.6754 127.848 15.9089 127.436 16.3749C127.025 16.8408 126.819 17.4446 126.819 18.1851V18.3497H131.221V18.1646C131.221 17.424 131.036 16.8274 130.666 16.3749C130.31 15.9089 129.789 15.6754 129.102 15.6754ZM136.275 24.6857V13.9474H138.908V16.1691H139.011C139.08 15.8811 139.182 15.6065 139.319 15.3463C139.626 14.7876 140.122 14.357 140.718 14.1326C141.047 14.0091 141.425 13.9474 141.85 13.9474H142.426V16.4366H141.603C140.711 16.4366 140.039 16.5672 139.587 16.8274C139.134 17.0877 138.908 17.5135 138.908 18.1029V24.6857H136.275ZM151.094 13.9474H153.563L149.243 26.5989C149.124 26.945 148.965 27.2763 148.77 27.5863C148.62 27.857 148.417 28.0948 148.173 28.2857C147.94 28.4637 147.659 28.5943 147.33 28.6766C147.001 28.7589 146.616 28.8 146.178 28.8H144.594V26.7017H146.527L147.021 25.2L143.174 13.9474H145.787L147.659 19.6251L148.358 22.3406H148.482L149.222 19.6251L151.094 13.9474Z" fill="white"/>
</g>
</g>
<defs>
<clipPath id="clip0_9_148">
<rect width="156" height="36" fill="white"/>
</clipPath>
<clipPath id="clip1_9_148">
<rect width="154.286" height="36" fill="white" transform="translate(0.857117)"/>
</clipPath>
</defs>
</svg>
