<svg width="40" height="40" viewBox="0 0 40 40" fill="none" xmlns="http://www.w3.org/2000/svg">
<g clip-path="url(#clip0_9_270)">
<g clip-path="url(#clip1_9_270)">
<g clip-path="url(#clip2_9_270)">
<path d="M30 0.5H10C4.75329 0.5 0.5 4.75329 0.5 10V30C0.5 35.2467 4.75329 39.5 10 39.5H30C35.2467 39.5 39.5 35.2467 39.5 30V10C39.5 4.75329 35.2467 0.5 30 0.5Z" fill="url(#paint0_linear_9_270)" stroke="url(#paint1_linear_9_270)"/>
<mask id="mask0_9_270" style="mask-type:alpha" maskUnits="userSpaceOnUse" x="0" y="0" width="40" height="40">
<path d="M30 1H10C5.02944 1 1 5.02944 1 10V30C1 34.9706 5.02944 39 10 39H30C34.9706 39 39 34.9706 39 30V10C39 5.02944 34.9706 1 30 1Z" fill="url(#paint2_linear_9_270)" stroke="url(#paint3_linear_9_270)" stroke-width="2"/>
</mask>
<g mask="url(#mask0_9_270)">
<g filter="url(#filter0_f_9_270)">
<path d="M8 42C15.732 42 22 38.866 22 35C22 31.134 15.732 28 8 28C0.268013 28 -6 31.134 -6 35C-6 38.866 0.268013 42 8 42Z" fill="url(#paint4_linear_9_270)" fill-opacity="0.5"/>
</g>
</g>
<path d="M22.778 17.778C22.778 17.1887 22.5439 16.6235 22.1272 16.2068C21.7105 15.7901 21.1453 15.556 20.556 15.556H20M20 15.556H19.444C19.1522 15.556 18.8633 15.6135 18.5937 15.7251C18.3241 15.8368 18.0791 16.0005 17.8728 16.2068C17.6665 16.4131 17.5028 16.6581 17.3911 16.9277C17.2795 17.1973 17.222 17.4862 17.222 17.778C17.222 18.0698 17.2795 18.3587 17.3911 18.6283C17.5028 18.8979 17.6665 19.1429 17.8728 19.3492C18.0791 19.5555 18.3241 19.7192 18.5937 19.8309C18.8633 19.9425 19.1522 20 19.444 20H20M20 15.556V13.889M20 15.556V20M20 20H20.556C21.1453 20 21.7105 20.2341 22.1272 20.6508C22.5439 21.0675 22.778 21.6327 22.778 22.222C22.778 22.8113 22.5439 23.3765 22.1272 23.7932C21.7105 24.2099 21.1453 24.444 20.556 24.444H20M20 20V24.444M20 24.444H19.444C19.1522 24.444 18.8633 24.3865 18.5937 24.2749C18.3241 24.1632 18.0791 23.9995 17.8728 23.7932C17.6665 23.5869 17.5028 23.3419 17.3911 23.0723C17.2795 22.8027 17.222 22.5138 17.222 22.222M20 24.444V26.111M30 20C30 25.523 25.523 30 20 30C14.477 30 10 25.523 10 20C10 14.477 14.477 10 20 10C25.523 10 30 14.477 30 20Z" stroke="white" stroke-width="1.6" stroke-linecap="round" stroke-linejoin="round"/>
</g>
</g>
</g>
<defs>
<filter id="filter0_f_9_270" x="-26" y="8" width="68" height="54" filterUnits="userSpaceOnUse" color-interpolation-filters="sRGB">
<feFlood flood-opacity="0" result="BackgroundImageFix"/>
<feBlend mode="normal" in="SourceGraphic" in2="BackgroundImageFix" result="shape"/>
<feGaussianBlur stdDeviation="10" result="effect1_foregroundBlur_9_270"/>
</filter>
<linearGradient id="paint0_linear_9_270" x1="20" y1="4.77601e-09" x2="20" y2="40" gradientUnits="userSpaceOnUse">
<stop stop-color="#303033"/>
<stop offset="1" stop-color="#161618"/>
</linearGradient>
<linearGradient id="paint1_linear_9_270" x1="20" y1="4.77601e-09" x2="20" y2="40" gradientUnits="userSpaceOnUse">
<stop stop-color="#232324"/>
<stop offset="1" stop-color="#333335"/>
</linearGradient>
<linearGradient id="paint2_linear_9_270" x1="20" y1="-2.74495e-08" x2="20" y2="40" gradientUnits="userSpaceOnUse">
<stop stop-color="#303033"/>
<stop offset="1" stop-color="#161618"/>
</linearGradient>
<linearGradient id="paint3_linear_9_270" x1="20" y1="-2.74495e-08" x2="20" y2="40" gradientUnits="userSpaceOnUse">
<stop stop-color="#232324"/>
<stop offset="1" stop-color="#333335"/>
</linearGradient>
<linearGradient id="paint4_linear_9_270" x1="15.467" y1="29.4" x2="6.88" y2="46.573" gradientUnits="userSpaceOnUse">
<stop stop-color="#C8933E"/>
<stop offset="1" stop-color="white"/>
</linearGradient>
<clipPath id="clip0_9_270">
<rect width="40" height="40" fill="white"/>
</clipPath>
<clipPath id="clip1_9_270">
<rect width="40" height="40" fill="white"/>
</clipPath>
<clipPath id="clip2_9_270">
<rect width="40" height="40" fill="white"/>
</clipPath>
</defs>
</svg>
