<svg width="40" height="40" viewBox="0 0 40 40" fill="none" xmlns="http://www.w3.org/2000/svg">
<g clip-path="url(#clip0_9_216)">
<g clip-path="url(#clip1_9_216)">
<g clip-path="url(#clip2_9_216)">
<path d="M30 0.5H10C4.75329 0.5 0.5 4.75329 0.5 10V30C0.5 35.2467 4.75329 39.5 10 39.5H30C35.2467 39.5 39.5 35.2467 39.5 30V10C39.5 4.75329 35.2467 0.5 30 0.5Z" fill="url(#paint0_linear_9_216)" stroke="url(#paint1_linear_9_216)"/>
<mask id="mask0_9_216" style="mask-type:alpha" maskUnits="userSpaceOnUse" x="0" y="0" width="40" height="40">
<path d="M30 1H10C5.02944 1 1 5.02944 1 10V30C1 34.9706 5.02944 39 10 39H30C34.9706 39 39 34.9706 39 30V10C39 5.02944 34.9706 1 30 1Z" fill="url(#paint2_linear_9_216)" stroke="url(#paint3_linear_9_216)" stroke-width="2"/>
</mask>
<g mask="url(#mask0_9_216)">
<g filter="url(#filter0_f_9_216)">
<path d="M8 42C15.732 42 22 38.866 22 35C22 31.134 15.732 28 8 28C0.268013 28 -6 31.134 -6 35C-6 38.866 0.268013 42 8 42Z" fill="url(#paint4_linear_9_216)" fill-opacity="0.5"/>
</g>
</g>
<path d="M16.944 15.555C16.9472 15.6299 16.9352 15.7047 16.9087 15.7749C16.8822 15.8451 16.8418 15.9092 16.7899 15.9633C16.738 16.0175 16.6757 16.0605 16.6067 16.09C16.5377 16.1194 16.4635 16.1346 16.3885 16.1346C16.3135 16.1346 16.2393 16.1194 16.1703 16.09C16.1013 16.0605 16.039 16.0175 15.9871 15.9633C15.9352 15.9092 15.8948 15.8451 15.8683 15.7749C15.8419 15.7047 15.8298 15.6299 15.833 15.555C15.8391 15.4118 15.9003 15.2764 16.0038 15.1772C16.1073 15.078 16.2451 15.0226 16.3885 15.0226C16.5319 15.0226 16.6697 15.078 16.7732 15.1772C16.8768 15.2764 16.9379 15.4118 16.944 15.555Z" fill="#292556" stroke="white" stroke-width="1.111"/>
<path d="M20 15.556H23.89M16.11 20H23.888M16.111 24.444H23.888M18.223 30H21.778C24.278 30 25.528 30 26.404 29.363C26.6871 29.1575 26.9361 28.9088 27.142 28.626C27.778 27.75 27.778 26.5 27.778 24V16C27.778 13.5 27.778 12.25 27.142 11.374C26.9361 11.0912 26.6871 10.8425 26.404 10.637C25.528 10 24.278 10 21.778 10H18.223C15.723 10 14.473 10 13.597 10.637C13.3139 10.8424 13.0648 11.0911 12.859 11.374C12.223 12.25 12.223 13.5 12.223 16V24C12.223 26.5 12.223 27.75 12.859 28.626C13.065 28.909 13.314 29.158 13.597 29.363C14.473 30 15.723 30 18.223 30Z" stroke="white" stroke-width="2" stroke-linecap="round" stroke-linejoin="round"/>
</g>
</g>
</g>
<defs>
<filter id="filter0_f_9_216" x="-26" y="8" width="68" height="54" filterUnits="userSpaceOnUse" color-interpolation-filters="sRGB">
<feFlood flood-opacity="0" result="BackgroundImageFix"/>
<feBlend mode="normal" in="SourceGraphic" in2="BackgroundImageFix" result="shape"/>
<feGaussianBlur stdDeviation="10" result="effect1_foregroundBlur_9_216"/>
</filter>
<linearGradient id="paint0_linear_9_216" x1="20" y1="4.77601e-09" x2="20" y2="40" gradientUnits="userSpaceOnUse">
<stop stop-color="#303033"/>
<stop offset="1" stop-color="#161618"/>
</linearGradient>
<linearGradient id="paint1_linear_9_216" x1="20" y1="4.77601e-09" x2="20" y2="40" gradientUnits="userSpaceOnUse">
<stop stop-color="#232324"/>
<stop offset="1" stop-color="#333335"/>
</linearGradient>
<linearGradient id="paint2_linear_9_216" x1="20" y1="-2.74495e-08" x2="20" y2="40" gradientUnits="userSpaceOnUse">
<stop stop-color="#303033"/>
<stop offset="1" stop-color="#161618"/>
</linearGradient>
<linearGradient id="paint3_linear_9_216" x1="20" y1="-2.74495e-08" x2="20" y2="40" gradientUnits="userSpaceOnUse">
<stop stop-color="#232324"/>
<stop offset="1" stop-color="#333335"/>
</linearGradient>
<linearGradient id="paint4_linear_9_216" x1="15.467" y1="29.4" x2="6.88" y2="46.573" gradientUnits="userSpaceOnUse">
<stop stop-color="#C83E85"/>
<stop offset="1" stop-color="white"/>
</linearGradient>
<clipPath id="clip0_9_216">
<rect width="40" height="40" fill="white"/>
</clipPath>
<clipPath id="clip1_9_216">
<rect width="40" height="40" fill="white"/>
</clipPath>
<clipPath id="clip2_9_216">
<rect width="40" height="40" fill="white"/>
</clipPath>
</defs>
</svg>
