<svg width="20" height="20" viewBox="0 0 20 20" fill="none" xmlns="http://www.w3.org/2000/svg">
<path d="M7.42496 12.575L19.75 0.25M19.75 0.25H15.1282M19.75 0.25V4.87176M11.0837 2.41632H8.05C4.8 2.41632 3.17552 2.41632 2.03672 3.24416C1.66876 3.51149 1.34517 3.83508 1.07784 4.20304C0.25 5.34184 0.25 6.96736 0.25 10.2163V11.95C0.25 15.2 0.25 16.8245 1.07784 17.9633C1.34512 18.3314 1.66856 18.6549 2.03672 18.9222C3.17552 19.75 4.8 19.75 8.05 19.75H9.78368C13.0326 19.75 14.6582 19.75 15.797 18.9222C16.1649 18.6548 16.4885 18.3312 16.7558 17.9633C17.5837 16.8245 17.5837 15.2 17.5837 11.95V8.91632" stroke="white" stroke-width="1.95" stroke-linecap="round" stroke-linejoin="round"/>
</svg>
