<svg width="12" height="7" viewBox="0 0 12 7" fill="none" xmlns="http://www.w3.org/2000/svg">
<path fill-rule="evenodd" clip-rule="evenodd" d="M7.53828 0.0141272H1.89348C1.70002 0.0181601 1.51067 0.0707081 1.3428 0.166951C1.17493 0.263194 1.03391 0.400049 0.932689 0.564964C0.831465 0.729878 0.773274 0.917571 0.763453 1.11082C0.753631 1.30408 0.792495 1.4967 0.876478 1.67103C1.26348 2.74293 1.77198 4.30263 2.20848 5.52123C2.62068 6.39873 3.83118 6.52023 4.50978 5.30163C4.82478 4.74183 7.53828 0.0141272 7.53828 0.0141272ZM11.5163 0.00512695H9.74868C8.75508 0.00512695 8.51298 0.517227 8.39148 0.735927C8.02788 1.39383 7.00548 3.12993 6.25488 4.47003C5.45478 5.76153 7.36908 7.07733 8.41128 5.42043C9.01698 4.34943 11.5163 0.00692725 11.5163 0.00692725V0.00512695Z" fill="#060F22"/>
</svg>
