<svg width="16" height="16" viewBox="0 0 16 16" fill="none" xmlns="http://www.w3.org/2000/svg">
<path d="M6.49918 10.1808L15.98 0.699951M15.98 0.699951H12.4248M15.98 0.699951V4.25515M9.31358 2.36635H6.97998C4.47998 2.36635 3.23038 2.36635 2.35438 3.00315C2.07133 3.20879 1.82242 3.4577 1.61678 3.74075C0.97998 4.61675 0.97998 5.86715 0.97998 8.36635V9.69995C0.97998 12.2 0.97998 13.4496 1.61678 14.3256C1.82238 14.6088 2.07118 14.8576 2.35438 15.0632C3.23038 15.7 4.47998 15.7 6.97998 15.7H8.31358C10.8128 15.7 12.0632 15.7 12.9392 15.0632C13.2222 14.8575 13.4711 14.6086 13.6768 14.3256C14.3136 13.4496 14.3136 12.2 14.3136 9.69995V7.36635" stroke="white" stroke-width="1.5" stroke-linecap="round" stroke-linejoin="round"/>
</svg>
