<svg width="16" height="16" viewBox="0 0 16 16" fill="none" xmlns="http://www.w3.org/2000/svg">
<path d="M6.0192 9.9808L15.5 0.5M15.5 0.5H11.9448M15.5 0.5V4.0552M8.8336 2.1664H6.5C4 2.1664 2.7504 2.1664 1.8744 2.8032C1.59135 3.00884 1.34244 3.25775 1.1368 3.5408C0.5 4.4168 0.5 5.6672 0.5 8.1664V9.5C0.5 12 0.5 13.2496 1.1368 14.1256C1.3424 14.4088 1.5912 14.6576 1.8744 14.8632C2.7504 15.5 4 15.5 6.5 15.5H7.8336C10.3328 15.5 11.5832 15.5 12.4592 14.8632C12.7422 14.6575 12.9911 14.4086 13.1968 14.1256C13.8336 13.2496 13.8336 12 13.8336 9.5V7.1664" stroke="white" stroke-width="1.5" stroke-linecap="round" stroke-linejoin="round"/>
</svg>
